<?xml version="1.0" standalone="no"?>
<!DOCTYPE svg PUBLIC "-//W3C//DTD SVG 20010904//EN"
 "http://www.w3.org/TR/2001/REC-SVG-20010904/DTD/svg10.dtd">
<svg version="1.0" xmlns="http://www.w3.org/2000/svg"
 width="16.000000pt" height="16.000000pt" viewBox="0 0 16.000000 16.000000"
 preserveAspectRatio="xMidYMid meet">
<metadata>
Created by potrace 1.11, written by Peter Selinger 2001-2013
</metadata>
<g transform="translate(0.000000,16.000000) scale(0.006154,-0.006154)"
fill="#000000" stroke="none">
<path d="M67 2467 l-22 -19 0 -1011 -1 -1012 25 -22 c18 -16 34 -20 63 -18 21
2 38 1 38 -3 0 -4 57 -6 126 -6 l126 2 41 43 c37 40 58 77 36 63 -5 -3 -7 -9
-4 -14 3 -4 -2 -10 -10 -14 -11 -4 -15 2 -15 20 0 14 4 23 8 20 4 -2 14 0 22
6 12 8 12 9 -3 4 -26 -8 -35 23 -11 41 18 14 18 15 -6 9 -14 -3 -20 -4 -15 -1
6 3 9 26 8 52 -2 35 2 52 15 62 15 12 14 12 -8 7 -14 -3 -20 -4 -15 -1 6 3 9
26 8 52 -2 35 2 52 15 62 15 12 14 12 -8 7 -14 -3 -20 -3 -14 -1 6 3 9 17 6
32 -4 20 -2 24 9 18 11 -6 12 -5 2 6 -18 19 -16 46 4 59 17 11 17 11 1 6 -12
-3 -18 0 -18 10 0 11 6 13 21 9 15 -5 19 -4 15 4 -4 6 -17 11 -29 12 -12 0
-17 3 -11 5 6 2 9 22 7 44 -1 21 2 42 7 45 6 3 10 12 10 18 0 8 -3 7 -9 -2 -6
-9 -9 1 -9 28 0 22 4 41 9 41 6 0 7 -6 4 -12 -4 -7 1 -4 9 6 9 11 16 14 16 7
0 -7 4 -10 9 -7 5 3 44 7 88 8 43 1 84 6 91 11 8 6 12 6 12 -2 0 -14 27 -15
35 -1 4 6 -1 7 -12 4 -14 -5 -15 -4 -4 4 8 6 29 9 46 7 18 -1 39 2 46 7 10 7
7 7 -8 3 -14 -4 -23 -2 -23 4 0 6 6 11 14 11 7 0 19 7 26 15 7 8 17 15 23 15
6 0 2 -7 -9 -16 -18 -14 -18 -15 4 -4 12 6 22 15 22 21 0 15 26 39 34 32 3 -4
6 0 6 8 0 8 9 21 19 29 11 7 18 17 15 22 -5 8 10 12 36 8 12 -1 11 1 -3 12
-16 12 -16 15 5 58 12 25 29 51 38 58 10 9 11 15 4 18 -13 6 -6 54 8 54 5 0 6
-4 3 -10 -4 -6 1 -7 11 -3 11 4 15 3 10 -5 -9 -15 14 -26 27 -13 9 9 7 10 -7
5 -13 -5 -17 -4 -12 4 3 6 -2 16 -13 22 -17 9 -26 50 -11 50 3 0 6 21 8 48 3
75 7 86 33 93 22 7 22 7 -6 8 -23 1 -27 3 -15 11 11 7 11 10 2 10 -9 0 -10 5
-4 18 5 9 8 37 7 62 -1 32 3 47 14 52 14 6 14 7 -1 7 -13 1 -17 9 -15 39 1 20
-2 43 -6 50 -5 7 -4 12 2 12 6 0 11 5 11 11 0 5 -4 7 -10 4 -6 -4 -10 7 -10
25 0 17 -9 64 -20 104 -54 203 -123 299 -250 348 -52 19 -75 21 -373 22 -298
2 -320 1 -340 -17z m427 -489 c-6 -10 -4 -10 7 0 7 6 21 12 30 12 22 0 33 -29
14 -36 -8 -4 -15 -10 -15 -15 0 -5 9 -4 20 3 13 8 19 20 16 31 -5 21 12 23 20
2 4 -8 11 -12 17 -8 6 3 7 1 3 -5 -4 -7 -2 -12 5 -12 8 0 8 -4 -1 -15 -17 -20
-31 -19 -23 3 5 13 3 14 -7 5 -7 -6 -9 -16 -6 -22 9 -14 36 -14 36 -1 0 6 5
10 11 10 6 0 9 -6 6 -14 -3 -8 -1 -16 6 -19 7 -2 11 -33 11 -88 0 -91 -16
-138 -57 -163 -29 -18 -77 -29 -77 -17 0 5 -8 7 -18 4 -16 -4 -19 2 -20 51 0
42 4 58 16 66 14 9 12 10 -8 6 -14 -3 -20 -3 -14 -1 6 3 9 17 6 32 -4 20 -2
24 9 18 11 -7 12 -6 2 6 -18 23 -14 89 6 90 9 1 6 4 -9 9 -14 4 -20 8 -15 9 6
1 10 12 10 26 0 14 -4 25 -10 25 -12 0 16 20 28 20 5 0 5 -6 1 -12z"/>
<path d="M511 1954 c0 -11 3 -14 6 -6 3 7 2 16 -1 19 -3 4 -6 -2 -5 -13z"/>
<path d="M500 1920 c8 -5 22 -9 30 -9 10 0 8 3 -5 9 -27 12 -43 12 -25 0z"/>
<path d="M485 1880 c-3 -5 -2 -10 4 -10 5 0 13 5 16 10 3 6 2 10 -4 10 -5 0
-13 -4 -16 -10z"/>
<path d="M485 1850 c-3 -6 1 -7 9 -4 18 7 21 14 7 14 -6 0 -13 -4 -16 -10z"/>
<path d="M495 1831 c-3 -5 -2 -12 3 -15 5 -3 9 1 9 9 0 17 -3 19 -12 6z"/>
<path d="M485 1780 c3 -5 11 -10 16 -10 6 0 7 5 4 10 -3 6 -11 10 -16 10 -6 0
-7 -4 -4 -10z"/>
<path d="M490 1730 c-9 -6 -10 -10 -3 -10 6 0 15 5 18 10 8 12 4 12 -15 0z"/>
<path d="M495 1700 c3 -5 8 -10 11 -10 2 0 4 5 4 10 0 6 -5 10 -11 10 -5 0 -7
-4 -4 -10z"/>
<path d="M485 1660 c3 -5 11 -10 16 -10 6 0 7 5 4 10 -3 6 -11 10 -16 10 -6 0
-7 -4 -4 -10z"/>
<path d="M1176 2467 l-21 -19 0 -1011 c0 -1137 -7 -1048 74 -1051 22 -1 43 -4
46 -8 4 -4 18 -3 31 2 19 8 24 6 24 -6 0 -13 3 -14 13 -5 8 6 29 10 49 9 19
-1 41 3 48 7 10 6 12 3 8 -13 -7 -25 7 -30 16 -6 4 10 16 14 35 12 57 -6 88
40 81 120 -1 13 6 32 15 42 16 18 16 18 -6 13 -17 -5 -20 -3 -14 7 4 7 8 29 7
49 -1 19 5 43 14 52 15 16 14 17 -7 12 -17 -5 -20 -3 -14 7 4 7 7 30 7 51 -1
21 3 41 10 45 7 5 9 2 6 -8 -4 -8 0 -15 7 -15 10 0 11 5 4 19 -5 10 -16 18
-24 18 -11 0 -12 6 -6 22 4 13 5 35 1 50 -6 20 -4 28 7 32 11 5 13 2 9 -11 -6
-15 -5 -16 6 -5 11 11 10 16 -5 27 -16 11 -17 17 -6 37 6 13 18 26 25 31 7 4
11 14 8 21 -3 9 3 17 17 21 17 6 19 9 8 16 -12 8 -11 11 4 20 9 6 14 15 11 21
-4 6 0 16 8 22 14 10 18 16 18 34 1 15 62 -182 136 -438 44 -154 84 -274 95
-285 11 -12 30 -20 46 -20 16 1 40 -6 56 -14 24 -14 25 -16 10 -23 -14 -5 -15
-7 -2 -7 8 -1 24 6 35 15 10 8 14 13 7 10 -15 -8 -44 4 -37 15 3 5 11 6 17 2
7 -4 25 -6 40 -4 15 1 35 -3 44 -11 12 -9 14 -9 9 -1 -5 10 13 12 77 11 46 0
89 2 94 5 6 4 13 -3 16 -14 7 -28 33 -18 29 11 -1 14 4 24 17 27 13 3 17 11
14 26 -5 23 -95 301 -233 722 -144 441 -152 469 -141 473 6 2 11 8 11 14 0 6
-7 8 -15 4 -19 -7 -20 8 -1 23 11 9 15 9 19 -1 3 -7 6 -8 6 -2 1 5 -5 19 -13
30 -14 18 -14 18 -13 0 1 -10 -5 -21 -13 -24 -13 -5 -13 -3 0 13 8 10 14 20
13 22 -8 10 0 25 30 54 23 24 27 31 12 26 -18 -7 -19 -6 -3 6 10 8 15 17 11
20 -3 4 -1 7 5 7 7 0 11 3 10 8 -2 11 31 80 42 87 6 4 8 11 5 16 -4 5 1 12 10
15 9 4 14 13 11 21 -4 8 3 17 17 23 12 5 16 9 10 9 -21 1 7 50 31 53 11 2 20
9 19 16 -3 14 13 16 22 3 3 -5 -5 -17 -17 -25 -12 -9 -18 -16 -14 -16 5 0 18
8 29 18 19 16 20 16 14 -1 -4 -10 -3 -16 2 -12 5 3 12 -1 14 -7 4 -9 6 -10 6
-1 2 20 -45 67 -58 59 -6 -4 -9 -12 -6 -17 4 -5 -1 -9 -9 -9 -12 0 -10 10 11
50 14 28 30 50 36 50 6 0 8 3 4 6 -6 7 29 84 39 84 3 0 2 -5 -2 -12 -5 -7 -3
-8 5 -4 7 5 10 14 7 22 -3 8 12 49 34 91 39 77 39 78 22 108 l-18 30 -225 0
c-123 1 -234 -3 -246 -8 -16 -7 -49 -68 -119 -221 -53 -116 -114 -244 -134
-285 l-38 -74 0 74 c0 52 4 79 15 91 13 15 13 16 -8 11 -17 -5 -20 -3 -14 7 4
7 8 29 7 49 -1 19 5 43 14 52 15 16 14 17 -7 12 -17 -5 -20 -3 -14 7 4 7 8 32
7 54 -1 26 1 36 7 28 7 -11 9 -10 14 3 4 9 3 13 -2 10 -17 -10 -26 19 -26 87
-2 103 -3 103 -209 103 -149 0 -171 -2 -190 -18z m1179 -2097 c3 -5 1 -10 -4
-10 -6 0 -11 5 -11 10 0 6 2 10 4 10 3 0 8 -4 11 -10z"/>
<path d="M2322 2287 c-8 -9 -8 -17 0 -27 8 -12 9 -12 4 2 -3 10 2 22 12 27 9
6 12 11 6 11 -6 0 -16 -6 -22 -13z"/>
<path d="M2353 2285 c-9 -10 -6 -12 13 -12 13 0 29 6 35 13 7 9 8 14 1 14 -6
0 -13 -6 -15 -12 -4 -10 -8 -10 -14 -2 -6 9 -11 8 -20 -1z"/>
<path d="M1600 2260 c-9 -6 -10 -10 -3 -10 6 0 15 5 18 10 8 12 4 12 -15 0z"/>
<path d="M2344 2246 c-16 -12 -17 -17 -5 -28 11 -11 13 -10 9 2 -3 8 4 20 16
27 12 7 16 12 10 13 -5 0 -19 -6 -30 -14z"/>
<path d="M2310 2224 c0 -13 18 -39 24 -34 2 3 -2 14 -10 24 -8 11 -14 16 -14
10z"/>
<path d="M1598 2213 c7 -3 16 -2 19 1 4 3 -2 6 -13 5 -11 0 -14 -3 -6 -6z"/>
<path d="M2282 2215 c4 -4 3 -14 -4 -22 -6 -7 -9 -15 -7 -18 3 -2 10 4 17 15
9 15 9 21 -1 26 -6 4 -9 4 -5 -1z"/>
<path d="M2289 2167 c-8 -17 -17 -23 -27 -20 -10 4 -13 2 -8 -5 4 -7 11 -12
15 -12 12 0 44 50 37 57 -3 3 -10 -6 -17 -20z"/>
<path d="M2320 2165 c-7 -9 -11 -17 -9 -20 3 -2 10 5 17 15 14 24 10 26 -8 5z"/>
<path d="M1598 2153 c7 -3 16 -2 19 1 4 3 -2 6 -13 5 -11 0 -14 -3 -6 -6z"/>
<path d="M2235 2120 c3 -5 8 -10 11 -10 2 0 4 5 4 10 0 6 -5 10 -11 10 -5 0
-7 -4 -4 -10z"/>
<path d="M2290 2120 c0 -5 5 -10 10 -10 6 0 10 5 10 10 0 6 -4 10 -10 10 -5 0
-10 -4 -10 -10z"/>
<path d="M2256 2101 c-6 -9 5 -21 34 -36 8 -5 12 -5 8 0 -4 4 -2 15 5 23 8 11
8 14 0 9 -6 -4 -14 -3 -18 3 -8 12 -22 13 -29 1z m29 -11 c3 -5 2 -10 -4 -10
-5 0 -13 5 -16 10 -3 6 -2 10 4 10 5 0 13 -4 16 -10z"/>
<path d="M1598 2093 c7 -3 16 -2 19 1 4 3 -2 6 -13 5 -11 0 -14 -3 -6 -6z"/>
<path d="M1598 2033 c7 -3 16 -2 19 1 4 3 -2 6 -13 5 -11 0 -14 -3 -6 -6z"/>
<path d="M2180 2019 c0 -5 5 -7 12 -3 8 5 9 2 5 -10 -4 -9 -3 -15 2 -12 5 3
12 -1 15 -10 4 -9 9 -14 12 -11 7 7 -25 57 -37 57 -5 0 -9 -5 -9 -11z"/>
<path d="M2230 2011 c0 -6 5 -13 12 -17 6 -4 8 -3 4 4 -3 5 0 13 6 15 8 3 6 6
-4 6 -10 1 -18 -3 -18 -8z"/>
<path d="M2181 1970 c0 -8 3 -21 8 -28 6 -11 10 -10 15 4 3 9 4 19 1 22 -3 3
-5 -1 -6 -9 0 -8 -4 -6 -9 6 -6 13 -9 15 -9 5z"/>
<path d="M2150 1940 c-11 -7 -11 -10 -2 -10 7 0 10 -4 7 -10 -4 -6 1 -7 11 -3
11 4 13 8 6 11 -7 2 -10 8 -6 13 7 11 3 11 -16 -1z"/>
<path d="M2210 1930 c-6 -11 -8 -20 -6 -20 3 0 10 9 16 20 6 11 8 20 6 20 -3
0 -10 -9 -16 -20z"/>
<path d="M2115 1900 c-3 -6 1 -7 9 -4 18 7 21 14 7 14 -6 0 -13 -4 -16 -10z"/>
<path d="M2179 1896 c10 -11 8 -17 -6 -25 -10 -6 -13 -11 -7 -11 6 0 19 10 30
22 10 12 13 18 7 14 -7 -4 -13 -2 -13 3 0 6 -5 11 -11 11 -8 0 -8 -4 0 -14z"/>
<path d="M2150 1890 c0 -5 5 -10 11 -10 5 0 7 5 4 10 -3 6 -8 10 -11 10 -2 0
-4 -4 -4 -10z"/>
<path d="M2134 1874 c5 -12 2 -15 -11 -10 -10 4 -14 4 -10 0 4 -4 -1 -13 -11
-20 -14 -11 -15 -15 -3 -26 12 -11 13 -10 8 3 -4 11 3 20 19 27 15 8 22 17 18
27 -3 8 -8 15 -11 15 -3 0 -2 -7 1 -16z"/>
<path d="M1076 1842 c-2 -4 -1 -14 4 -22 7 -11 9 -9 7 8 -1 24 -3 26 -11 14z"/>
<path d="M2138 1828 c5 -5 16 -8 23 -6 8 3 3 7 -10 11 -17 4 -21 3 -13 -5z"/>
<path d="M2081 1794 c0 -11 3 -14 6 -6 3 7 2 16 -1 19 -3 4 -6 -2 -5 -13z"/>
<path d="M2113 1782 c-9 -6 -7 -11 7 -20 12 -7 20 -8 20 -2 0 5 -5 10 -11 10
-5 0 -7 5 -4 10 7 12 4 12 -12 2z"/>
<path d="M1075 1760 c-7 -12 2 -30 16 -30 5 0 9 5 9 11 0 5 -5 7 -12 3 -8 -5
-9 -2 -5 9 7 19 2 23 -8 7z"/>
<path d="M2074 1761 c3 -5 -1 -12 -10 -15 -9 -4 -14 -9 -11 -13 8 -7 37 15 37
28 0 5 -5 9 -11 9 -5 0 -8 -4 -5 -9z"/>
<path d="M2095 1740 c-3 -5 -3 -10 2 -11 4 -1 -3 -4 -17 -8 l-25 -7 26 -6 c21
-4 26 -1 24 11 -1 9 3 19 9 23 8 6 8 8 -1 8 -6 0 -15 -4 -18 -10z"/>
<path d="M2032 1710 c7 -10 14 -18 15 -16 6 6 -9 36 -18 36 -5 0 -4 -9 3 -20z"/>
<path d="M2070 1690 c-9 -6 -10 -10 -3 -10 6 0 15 5 18 10 8 12 4 12 -15 0z"/>
<path d="M1091 1674 c0 -11 3 -14 6 -6 3 7 2 16 -1 19 -3 4 -6 -2 -5 -13z"/>
<path d="M1067 1657 c-3 -7 -2 -19 3 -26 5 -10 8 -9 13 2 3 7 2 19 -3 26 -5
10 -8 9 -13 -2z"/>
<path d="M2046 1653 c-3 -8 -2 -22 4 -31 8 -14 9 -13 7 8 -1 13 3 25 10 25 20
0 23 11 3 12 -10 1 -21 -5 -24 -14z"/>
<path d="M1086 1613 c-6 -14 -5 -15 5 -6 7 7 10 15 7 18 -3 3 -9 -2 -12 -12z"/>
<path d="M2031 1604 c0 -11 3 -14 6 -6 3 7 2 16 -1 19 -3 4 -6 -2 -5 -13z"/>
<path d="M1050 1600 c0 -5 5 -10 10 -10 6 0 10 5 10 10 0 6 -4 10 -10 10 -5 0
-10 -4 -10 -10z"/>
<path d="M1074 1574 c-18 -14 -18 -15 4 -4 12 6 22 13 22 15 0 8 -5 6 -26 -11z"/>
<path d="M1046 1534 c-5 -14 -4 -15 9 -4 17 14 19 20 6 20 -5 0 -12 -7 -15
-16z"/>
<path d="M1074 1529 c-3 -6 -2 -15 3 -20 5 -5 9 -1 9 11 0 23 -2 24 -12 9z"/>
<path d="M1036 1467 c3 -10 9 -15 12 -12 3 3 0 11 -7 18 -10 9 -11 8 -5 -6z"/>
<path d="M1054 1439 c-3 -6 -2 -15 4 -21 6 -6 12 -6 17 3 5 8 4 10 -3 5 -7 -4
-12 -3 -12 3 0 5 6 12 13 14 9 4 9 6 0 6 -6 1 -15 -4 -19 -10z"/>
<path d="M1030 1422 c0 -6 7 -17 15 -25 8 -8 11 -18 7 -22 -4 -5 -1 -5 6 -1
11 6 10 12 -5 29 -10 12 -19 24 -20 26 -2 2 -3 -1 -3 -7z"/>
<path d="M1000 1399 c0 -5 5 -7 10 -4 6 3 10 8 10 11 0 2 -4 4 -10 4 -5 0 -10
-5 -10 -11z"/>
<path d="M1009 1367 c-8 -17 -17 -23 -27 -20 -10 4 -13 2 -8 -5 4 -7 11 -12
15 -12 12 0 44 50 37 57 -3 3 -10 -6 -17 -20z"/>
<path d="M1030 1350 c0 -5 5 -10 10 -10 6 0 10 5 10 10 0 6 -4 10 -10 10 -5 0
-10 -4 -10 -10z"/>
<path d="M1010 1325 c0 -7 30 -13 34 -7 3 4 -4 9 -15 9 -10 1 -19 0 -19 -2z"/>
<path d="M985 1284 c-9 -14 -14 -28 -11 -31 3 -3 11 6 17 21 14 30 28 35 24 9
-1 -10 0 -12 2 -5 3 7 10 9 16 5 7 -4 6 1 -2 10 -18 23 -26 21 -46 -9z"/>
<path d="M952 1284 c-7 -8 -8 -14 -3 -14 10 0 25 19 20 25 -2 1 -10 -3 -17
-11z"/>
<path d="M926 1244 c-4 -9 -4 -19 -1 -22 3 -3 5 0 5 7 0 7 4 9 10 6 6 -3 7 1
4 9 -8 20 -10 20 -18 0z"/>
<path d="M985 1241 c-6 -11 13 -26 22 -17 4 3 0 6 -8 6 -11 0 -11 2 1 10 9 6
10 10 3 10 -6 0 -14 -4 -18 -9z"/>
<path d="M952 1224 c-7 -8 -8 -14 -3 -14 10 0 25 19 20 25 -2 1 -10 -3 -17
-11z"/>
<path d="M894 1219 c-7 -12 32 -49 51 -48 6 0 2 6 -7 13 -10 7 -15 16 -11 20
4 4 0 4 -10 0 -13 -5 -16 -2 -11 10 7 18 -1 22 -12 5z"/>
<path d="M957 1189 c7 -7 15 -10 18 -7 3 3 -2 9 -12 12 -14 6 -15 5 -6 -5z"/>
<path d="M870 1180 c0 -5 5 -10 10 -10 6 0 10 5 10 10 0 6 -4 10 -10 10 -5 0
-10 -4 -10 -10z"/>
<path d="M840 1161 c0 -6 9 -16 20 -23 18 -11 18 -14 3 -30 -22 -25 -8 -23 17
2 11 11 15 20 9 20 -5 0 -7 4 -4 10 3 6 -1 7 -10 4 -10 -4 -15 -2 -13 6 2 7
-3 15 -9 17 -7 3 -13 0 -13 -6z"/>
<path d="M902 1153 c3 -19 28 -31 28 -13 0 6 -5 8 -12 4 -8 -5 -9 -2 -5 9 3
10 2 17 -4 17 -6 0 -9 -8 -7 -17z"/>
<path d="M950 1160 c-9 -6 -10 -10 -3 -10 6 0 15 5 18 10 8 12 4 12 -15 0z"/>
<path d="M760 1135 c-9 -11 -10 -19 -3 -26 7 -7 14 -5 23 6 9 11 10 19 3 26
-7 7 -14 5 -23 -6z m12 -17 c-7 -7 -12 -8 -12 -2 0 14 12 26 19 19 2 -3 -1
-11 -7 -17z"/>
<path d="M815 1141 c-10 -17 15 -45 29 -31 7 7 5 15 -6 26 -11 11 -18 13 -23
5z m25 -22 c0 -6 -4 -7 -10 -4 -5 3 -10 11 -10 16 0 6 5 7 10 4 6 -3 10 -11
10 -16z"/>
<path d="M596 1117 c3 -10 9 -15 12 -12 3 3 0 11 -7 18 -10 9 -11 8 -5 -6z"/>
<path d="M656 1113 c2 -6 -7 -14 -19 -16 -22 -4 -22 -4 -1 -6 12 0 28 7 35 16
8 9 9 14 2 10 -6 -4 -13 -4 -16 0 -2 5 -2 3 -1 -4z"/>
<path d="M694 1113 c2 -9 8 -18 15 -19 6 -1 7 0 1 3 -5 2 -8 9 -5 13 3 5 1 11
-4 14 -5 4 -8 -2 -7 -11z"/>
<path d="M575 1110 c3 -5 -1 -10 -9 -10 -9 0 -16 -5 -16 -10 0 -7 7 -7 20 0
17 9 20 30 4 30 -3 0 -2 -4 1 -10z"/>
<path d="M726 1105 c4 -8 11 -15 16 -15 6 0 5 6 -2 15 -7 8 -14 15 -16 15 -2
0 -1 -7 2 -15z"/>
<path d="M494 1099 c-8 -14 11 -33 25 -25 6 4 11 11 11 16 0 13 -29 20 -36 9z
m21 -9 c3 -5 1 -10 -4 -10 -6 0 -11 5 -11 10 0 6 2 10 4 10 3 0 8 -4 11 -10z"/>
<path d="M790 1100 c0 -5 5 -10 10 -10 6 0 10 5 10 10 0 6 -4 10 -10 10 -5 0
-10 -4 -10 -10z"/>
<path d="M580 1080 c-12 -7 -10 -9 8 -7 12 0 22 5 22 9 0 11 -12 10 -30 -2z"/>
<path d="M660 1079 c-13 -9 -12 -10 3 -5 11 3 20 0 23 -9 4 -8 10 -15 15 -15
5 0 4 9 -3 20 -15 23 -18 24 -38 9z"/>
<path d="M760 1080 c0 -5 5 -10 10 -10 6 0 10 5 10 10 0 6 -4 10 -10 10 -5 0
-10 -4 -10 -10z"/>
<path d="M820 1080 c0 -5 5 -10 10 -10 6 0 10 5 10 10 0 6 -4 10 -10 10 -5 0
-10 -4 -10 -10z"/>
<path d="M1670 1086 c0 -2 7 -7 16 -10 8 -3 12 -2 9 4 -6 10 -25 14 -25 6z"/>
<path d="M620 1065 c-7 -9 -8 -15 -2 -15 5 0 12 7 16 15 3 8 4 15 2 15 -2 0
-9 -7 -16 -15z"/>
<path d="M710 1076 c0 -2 6 -9 14 -15 11 -9 16 -9 22 0 4 8 3 9 -4 5 -7 -4
-12 -2 -12 3 0 6 -4 11 -10 11 -5 0 -10 -2 -10 -4z"/>
<path d="M538 1058 c14 -14 44 -20 36 -7 -3 5 -10 7 -15 4 -5 -4 -9 -1 -9 4 0
6 -5 11 -12 11 -9 0 -9 -3 0 -12z"/>
<path d="M505 1049 c-4 -6 -4 -13 -1 -16 3 -4 6 -1 6 6 0 7 5 9 12 5 7 -4 8
-3 4 4 -9 15 -13 15 -21 1z"/>
<path d="M1678 1052 c0 -4 -2 -11 -3 -17 -2 -5 -3 -16 -4 -23 0 -7 -6 -10 -13
-6 -7 4 -8 3 -4 -4 10 -17 26 -15 26 3 0 8 5 14 12 13 18 -4 21 29 3 35 -8 4
-16 3 -17 -1z m22 -23 c0 -6 -4 -7 -10 -4 -5 3 -10 11 -10 16 0 6 5 7 10 4 6
-3 10 -11 10 -16z"/>
<path d="M489 993 c-13 -16 -12 -17 4 -4 16 13 21 21 13 21 -2 0 -10 -8 -17
-17z"/>
<path d="M1701 996 c-8 -10 -9 -16 -1 -21 5 -3 10 -5 11 -3 4 18 7 38 4 38 -1
0 -8 -6 -14 -14z"/>
<path d="M1635 971 c-4 -13 -11 -19 -18 -15 -7 4 -9 4 -5 -1 4 -4 0 -14 -10
-22 -15 -13 -15 -13 5 -3 23 11 49 48 40 57 -3 2 -8 -5 -12 -16z"/>
<path d="M1660 960 c-9 -16 -8 -22 5 -26 9 -4 19 -4 22 0 4 3 -1 6 -10 6 -11
0 -14 5 -11 15 5 13 9 13 23 3 14 -12 15 -11 2 5 -17 21 -18 21 -31 -3z"/>
<path d="M1620 920 c-8 -5 -10 -10 -5 -10 6 0 17 5 25 10 8 5 11 10 5 10 -5 0
-17 -5 -25 -10z"/>
<path d="M1625 884 c-9 -14 -14 -28 -11 -31 3 -3 8 2 12 11 5 14 9 14 22 4 11
-9 13 -9 9 -1 -4 6 -3 14 3 18 11 7 4 25 -9 25 -5 0 -16 -12 -26 -26z m35 12
c0 -3 -4 -8 -10 -11 -5 -3 -10 -1 -10 4 0 6 5 11 10 11 6 0 10 -2 10 -4z"/>
<path d="M490 890 c-9 -6 -10 -10 -3 -10 6 0 15 5 18 10 8 12 4 12 -15 0z"/>
<path d="M495 860 c3 -5 8 -10 11 -10 2 0 4 5 4 10 0 6 -5 10 -11 10 -5 0 -7
-4 -4 -10z"/>
<path d="M1596 823 c-6 -14 -5 -15 5 -6 7 7 10 15 7 18 -3 3 -9 -2 -12 -12z"/>
<path d="M485 820 c3 -5 11 -10 16 -10 6 0 7 5 4 10 -3 6 -11 10 -16 10 -6 0
-7 -4 -4 -10z"/>
<path d="M1610 799 c0 -5 5 -7 10 -4 6 3 10 8 10 11 0 2 -4 4 -10 4 -5 0 -10
-5 -10 -11z"/>
<path d="M490 770 c-9 -6 -10 -10 -3 -10 6 0 15 5 18 10 8 12 4 12 -15 0z"/>
<path d="M495 740 c3 -5 8 -10 11 -10 2 0 4 5 4 10 0 6 -5 10 -11 10 -5 0 -7
-4 -4 -10z"/>
<path d="M485 700 c3 -5 11 -10 16 -10 6 0 7 5 4 10 -3 6 -11 10 -16 10 -6 0
-7 -4 -4 -10z"/>
<path d="M1598 693 c7 -3 16 -2 19 1 4 3 -2 6 -13 5 -11 0 -14 -3 -6 -6z"/>
<path d="M490 650 c-9 -6 -10 -10 -3 -10 6 0 15 5 18 10 8 12 4 12 -15 0z"/>
<path d="M1598 633 c7 -3 16 -2 19 1 4 3 -2 6 -13 5 -11 0 -14 -3 -6 -6z"/>
<path d="M495 620 c3 -5 8 -10 11 -10 2 0 4 5 4 10 0 6 -5 10 -11 10 -5 0 -7
-4 -4 -10z"/>
<path d="M485 580 c3 -5 11 -10 16 -10 6 0 7 5 4 10 -3 6 -11 10 -16 10 -6 0
-7 -4 -4 -10z"/>
<path d="M1598 573 c7 -3 16 -2 19 1 4 3 -2 6 -13 5 -11 0 -14 -3 -6 -6z"/>
<path d="M490 530 c-9 -6 -10 -10 -3 -10 6 0 15 5 18 10 8 12 4 12 -15 0z"/>
<path d="M1598 513 c7 -3 16 -2 19 1 4 3 -2 6 -13 5 -11 0 -14 -3 -6 -6z"/>
<path d="M1598 453 c7 -3 16 -2 19 1 4 3 -2 6 -13 5 -11 0 -14 -3 -6 -6z"/>
<path d="M480 420 c20 -13 33 -13 25 0 -3 6 -14 10 -23 10 -15 0 -15 -2 -2
-10z"/>
<path d="M468 398 c5 -5 16 -8 23 -6 8 3 3 7 -10 11 -17 4 -21 3 -13 -5z"/>
<path d="M1588 393 c6 -2 18 -2 25 0 6 3 1 5 -13 5 -14 0 -19 -2 -12 -5z"/>
<path d="M2386 386 c10 -8 21 -12 24 -10 5 6 -21 24 -34 24 -6 0 -1 -6 10 -14z"/>
<path d="M446 383 c6 -4 10 -16 8 -26 -3 -22 27 -39 47 -26 12 8 12 10 -1 8
-30 -3 -37 1 -36 23 0 11 -6 23 -14 25 -10 3 -11 2 -4 -4z"/>
<path d="M1578 358 c12 -18 20 -37 20 -41 0 -5 3 -11 6 -14 12 -12 -4 37 -19
61 -25 38 -30 32 -7 -6z"/>
<path d="M493 373 c-15 -5 -17 -23 -4 -23 5 0 11 7 15 15 3 8 4 15 3 14 -1 0
-8 -3 -14 -6z"/>
<path d="M1537 360 c-3 -14 1 -24 15 -31 11 -6 22 -8 26 -5 3 3 0 6 -7 6 -7 0
-9 4 -6 10 3 5 0 7 -9 4 -11 -4 -13 0 -9 15 3 12 3 21 0 21 -2 0 -7 -9 -10
-20z"/>
<path d="M190 360 c0 -5 5 -10 11 -10 5 0 7 5 4 10 -3 6 -8 10 -11 10 -2 0 -4
-4 -4 -10z"/>
<path d="M236 358 c3 -4 0 -8 -7 -8 -7 0 -10 -3 -6 -6 3 -3 16 1 28 9 22 16
22 16 1 14 -11 0 -18 -5 -16 -9z"/>
<path d="M276 353 l-30 -16 23 -18 c13 -11 28 -19 35 -18 7 0 6 2 -2 6 -6 2
-10 9 -7 14 4 5 0 6 -8 3 -8 -3 -18 -1 -21 4 -3 6 5 13 19 16 14 4 25 11 25
16 0 6 -1 10 -2 9 -2 -1 -16 -8 -32 -16z"/>
<path d="M370 360 c-9 -6 -10 -10 -3 -10 6 0 15 5 18 10 8 12 4 12 -15 0z"/>
<path d="M420 360 c0 -5 5 -10 10 -10 6 0 10 5 10 10 0 6 -4 10 -10 10 -5 0
-10 -4 -10 -10z"/>
<path d="M1295 360 c-3 -5 -3 -10 2 -10 4 0 1 -5 -7 -10 -8 -5 -10 -10 -4 -10
17 0 37 27 25 34 -5 4 -12 2 -16 -4z"/>
<path d="M1357 364 c-3 -3 -2 -14 3 -23 5 -9 11 -25 15 -35 5 -18 7 -18 22 -3
14 14 15 19 4 29 -10 11 -11 10 -6 -3 4 -10 2 -20 -4 -24 -7 -3 -11 2 -11 14
0 11 -5 23 -10 26 -6 4 -8 11 -5 16 7 10 2 12 -8 3z"/>
<path d="M1380 360 c0 -5 5 -10 11 -10 5 0 7 5 4 10 -3 6 -8 10 -11 10 -2 0
-4 -4 -4 -10z"/>
<path d="M1416 355 c-5 -14 30 -42 41 -32 2 3 -5 8 -16 12 -12 4 -18 12 -14
21 3 7 3 14 0 14 -3 0 -7 -7 -11 -15z"/>
<path d="M1476 355 c-9 -26 -7 -32 5 -12 6 10 9 21 6 23 -2 3 -7 -2 -11 -11z"/>
<path d="M1502 363 c1 -4 -4 -19 -11 -31 -7 -13 -10 -26 -7 -30 3 -3 6 1 6 8
0 9 7 7 23 -6 22 -19 22 -19 5 2 -10 11 -18 24 -18 29 0 4 8 1 18 -7 9 -8 24
-18 32 -22 8 -4 3 2 -13 14 -15 12 -25 26 -22 30 3 5 1 12 -5 15 -6 4 -9 3 -8
-2z"/>
<path d="M2100 360 c8 -5 20 -10 25 -10 6 0 3 5 -5 10 -8 5 -19 10 -25 10 -5
0 -3 -5 5 -10z"/>
<path d="M2156 355 c-11 -8 -16 -15 -10 -15 5 0 18 7 28 15 11 8 16 15 10 15
-5 0 -18 -7 -28 -15z"/>
<path d="M2196 353 l-30 -16 23 -18 c13 -11 28 -19 35 -18 7 0 6 2 -2 6 -6 2
-10 9 -7 14 4 5 0 6 -8 3 -8 -3 -18 -1 -21 4 -3 6 5 13 19 16 14 4 25 11 25
16 0 6 -1 10 -2 9 -2 -1 -16 -8 -32 -16z"/>
<path d="M2290 360 c-9 -6 -10 -10 -3 -10 6 0 15 5 18 10 8 12 4 12 -15 0z"/>
<path d="M2377 355 c-6 -15 10 -32 20 -21 4 3 1 6 -5 6 -6 0 -9 7 -6 15 4 8 4
15 1 15 -3 0 -7 -7 -10 -15z"/>
<path d="M320 340 c-8 -5 -12 -11 -9 -14 3 -3 14 1 25 9 21 16 8 20 -16 5z"/>
<path d="M386 335 c-10 -28 -5 -41 6 -15 7 18 12 21 15 10 14 -45 13 -44 30
-27 14 14 15 19 4 29 -11 10 -12 10 -7 1 4 -7 4 -19 0 -25 -6 -9 -10 -5 -14
11 -7 30 -25 38 -34 16z"/>
<path d="M1319 333 c-13 -16 -12 -17 4 -4 12 10 17 10 17 1 0 -6 -9 -14 -21
-17 -15 -4 -17 -8 -8 -14 17 -10 46 28 32 42 -6 6 -15 3 -24 -8z"/>
<path d="M2074 339 c-3 -6 -1 -16 5 -22 9 -9 14 -8 21 3 9 15 4 30 -10 30 -5
0 -12 -5 -16 -11z m26 -3 c0 -3 -4 -8 -10 -11 -5 -3 -10 -1 -10 4 0 6 5 11 10
11 6 0 10 -2 10 -4z"/>
<path d="M2240 340 c-8 -5 -12 -11 -9 -14 3 -3 14 1 25 9 21 16 8 20 -16 5z"/>
<path d="M2306 335 c-10 -28 -5 -41 6 -15 7 18 12 21 15 10 14 -45 13 -44 30
-27 14 14 15 19 4 29 -11 10 -12 10 -7 1 4 -7 4 -19 0 -25 -6 -9 -10 -5 -14
11 -7 30 -25 38 -34 16z"/>
<path d="M197 326 c-4 -9 -3 -15 2 -12 5 3 12 -1 15 -10 5 -12 10 -14 20 -5 7
6 17 7 21 3 5 -4 5 -1 1 6 -6 11 -11 11 -24 0 -13 -11 -15 -10 -9 5 4 10 3 16
-2 12 -5 -3 -11 0 -13 7 -3 7 -7 5 -11 -6z"/>
<path d="M359 338 c-5 -9 -5 -48 -1 -43 6 6 11 45 5 45 -2 0 -4 -1 -4 -2z"/>
<path d="M2121 334 c-2 -19 25 -48 33 -35 4 6 12 8 18 5 7 -4 8 -2 4 5 -6 9
-11 9 -24 -1 -13 -11 -15 -10 -9 5 4 10 3 16 -2 12 -5 -3 -12 1 -14 7 -3 7 -6
8 -6 2z"/>
<path d="M2279 338 c-5 -9 -5 -48 -1 -43 6 6 11 45 5 45 -2 0 -4 -1 -4 -2z"/>
<path d="M2421 323 c7 -12 15 -20 18 -17 3 2 -3 12 -13 22 -17 16 -18 16 -5
-5z"/>
<path d="M2045 321 c-6 -11 13 -26 22 -17 4 3 1 6 -6 6 -7 0 -9 5 -6 10 3 6 4
10 1 10 -3 0 -7 -4 -11 -9z"/>
<path d="M2390 310 c-13 -8 -12 -10 3 -10 9 0 17 5 17 10 0 12 -1 12 -20 0z"/>
<path d="M1455 300 c3 -5 8 -10 11 -10 2 0 4 5 4 10 0 6 -5 10 -11 10 -5 0 -7
-4 -4 -10z"/>
</g>
</svg>
